<?xml version="1.0"?>
<svg xmlns="http://www.w3.org/2000/svg" xmlns:xlink="http://www.w3.org/1999/xlink" width="512" height="512" viewBox="0 0 128 128"><defs><linearGradient id="a" x1="104.85" y1="90.023" x2="18.394" y2="3.567" gradientUnits="userSpaceOnUse"><stop offset="0" stop-color="#32d736"/><stop offset="1" stop-color="#fedb41"/></linearGradient></defs><path d="M124.042,48.061v5.625a1.75,1.75,0,1,1-3.5,0V48.061a1.75,1.75,0,0,1,3.5,0Zm-.513,19.914a1.748,1.748,0,0,1,0,2.474L100.66,93.318a1.746,1.746,0,0,1-1.237.513H94.047l-7.112,7.111v6.271a1.749,1.749,0,0,1-.512,1.237L67.385,127.487a1.749,1.749,0,0,1-2.475,0L51.291,113.868a1.748,1.748,0,0,1,0-2.474L66.125,96.559l-.362-.363-7.358-7.357H53.7a1.749,1.749,0,0,1-1.75-1.75V70.73H47.586a1.749,1.749,0,0,1-1.237-.512L37.58,61.449H29.93a1.749,1.749,0,0,1-1.75-1.75V54.885H10.915a1.75,1.75,0,0,1-1.237-.513L4.471,49.165a1.75,1.75,0,0,1-.513-1.237V37.742a1.752,1.752,0,0,1,.7-1.4l4.734-3.55V13.3a1.749,1.749,0,0,1,1.75-1.75H20.2a1.75,1.75,0,0,1,1.238.513l4.875,4.874,1.419-1.419V5.938a1.749,1.749,0,0,1,1.75-1.75h8.488A1.749,1.749,0,0,1,39.2,4.7l9.421,9.421,4.063-4.063a1.75,1.75,0,0,1,1.238-.513h12.14L75.1.513A1.749,1.749,0,0,1,78.084,1.75V15.328H91.112a1.754,1.754,0,0,1,1.238.513l4.175,4.177h15a1.751,1.751,0,0,1,1.238.512L123.529,31.3a1.749,1.749,0,0,1-2.474,2.474L110.8,23.518h-15a1.754,1.754,0,0,1-1.238-.513l-4.175-4.177H76.334a1.749,1.749,0,0,1-1.75-1.75V5.975l-6.558,6.557a1.75,1.75,0,0,1-1.237.513H54.648L49.86,17.833a1.748,1.748,0,0,1-2.474,0L37.24,7.688H31.227v8.549a1.752,1.752,0,0,1-.513,1.238l-3.169,3.169a1.751,1.751,0,0,1-2.475,0l-5.6-5.6H12.892V33.667a1.75,1.75,0,0,1-.7,1.4l-4.733,3.55V47.2l4.182,4.182H29.93a1.744,1.744,0,0,1,1.73,1.551L62.947,29.378a1.752,1.752,0,0,1,2.106,0L109.175,62.6a1.752,1.752,0,0,1,0,2.8L69.662,95.146l.175.175a1.751,1.751,0,0,1,0,2.475L55,112.631l11.144,11.144,17.288-17.287v-6.27a1.754,1.754,0,0,1,.513-1.238l8.137-8.136a1.75,1.75,0,0,1,1.237-.513H98.7l22.357-22.356A1.748,1.748,0,0,1,123.529,67.975ZM52.323,67.23H53.7a1.75,1.75,0,0,1,1.75,1.75v3.589a11.984,11.984,0,0,0,10.74,3.345,15.84,15.84,0,0,0-1.522-4.083,1.75,1.75,0,0,1,3.08-1.662,19.313,19.313,0,0,1,1.76,4.618,12.2,12.2,0,0,0,3.808-3.039,24.064,24.064,0,0,0-18.261-15.9,12.117,12.117,0,0,0-2.494,4.178,19.353,19.353,0,0,1,3.69.725,1.75,1.75,0,0,1-.508,3.425,1.8,1.8,0,0,1-.51-.075,15.782,15.782,0,0,0-3.328-.628c-.008.176-.027.35-.027.528A11.926,11.926,0,0,0,52.323,67.23ZM76.125,64a12.1,12.1,0,0,0-17.463-10.87A27.647,27.647,0,0,1,75.506,67.8,12.031,12.031,0,0,0,76.125,64Zm-8.963,28.65L105.213,64,64,32.967,31.68,57.3v.646h6.625a1.75,1.75,0,0,1,1.237.513L48.31,67.23h.422A15.367,15.367,0,0,1,48.375,64a15.569,15.569,0,0,1,4.769-11.213,1.747,1.747,0,0,1,.274-.249,15.6,15.6,0,0,1,23.289,20.52,1.711,1.711,0,0,1-.126.168A15.671,15.671,0,0,1,68.8,78.859l-.088.032a15.468,15.468,0,0,1-13.269-1.86v8.308H59.13a1.746,1.746,0,0,1,1.237.513Z" fill="url(#a)"/></svg>
